<mxfile host="app.diagrams.net" modified="2023-10-31T10:06:16.693Z" agent="Mozilla/5.0 (Windows NT 10.0; Win64; x64; rv:109.0) Gecko/20100101 Firefox/116.0" etag="MQmZK4x5MrkQKr-yLNWg" version="21.6.8" type="device">
  <diagram name="Page-1" id="u9EmTm14aIS3WBHgXmOk">
    <mxGraphModel dx="2739" dy="1043" grid="1" gridSize="10" guides="1" tooltips="1" connect="1" arrows="1" fold="1" page="1" pageScale="1" pageWidth="827" pageHeight="1169" math="0" shadow="0">
      <root>
        <mxCell id="0" />
        <mxCell id="1" parent="0" />
        <mxCell id="5rb6dhZWjBb2u9iBjQLc-51" value="" style="rounded=0;whiteSpace=wrap;html=1;fillColor=none;" parent="1" vertex="1">
          <mxGeometry x="-280" y="280" width="210" height="420" as="geometry" />
        </mxCell>
        <mxCell id="5rb6dhZWjBb2u9iBjQLc-49" value="" style="rounded=0;whiteSpace=wrap;html=1;fillColor=none;" parent="1" vertex="1">
          <mxGeometry x="598" y="20" width="410" height="450" as="geometry" />
        </mxCell>
        <mxCell id="5rb6dhZWjBb2u9iBjQLc-1" value="&lt;font style=&quot;font-size: 14px;&quot;&gt;Database&lt;br&gt;(MySQL)&lt;/font&gt;" style="strokeWidth=2;html=1;shape=mxgraph.flowchart.database;whiteSpace=wrap;" parent="1" vertex="1">
          <mxGeometry x="668" y="340" width="80" height="110" as="geometry" />
        </mxCell>
        <mxCell id="WCC0QbR53YFn9wZXsvke-26" style="edgeStyle=orthogonalEdgeStyle;rounded=0;orthogonalLoop=1;jettySize=auto;html=1;exitX=0.875;exitY=0.5;exitDx=0;exitDy=0;exitPerimeter=0;entryX=0.5;entryY=0;entryDx=0;entryDy=0;startArrow=classic;startFill=1;" edge="1" parent="1" source="5rb6dhZWjBb2u9iBjQLc-2" target="WCC0QbR53YFn9wZXsvke-24">
          <mxGeometry relative="1" as="geometry" />
        </mxCell>
        <mxCell id="5rb6dhZWjBb2u9iBjQLc-2" value="&lt;font style=&quot;font-size: 14px;&quot;&gt;Internet&lt;/font&gt;" style="ellipse;shape=cloud;whiteSpace=wrap;html=1;" parent="1" vertex="1">
          <mxGeometry x="160" y="339" width="120" height="80" as="geometry" />
        </mxCell>
        <mxCell id="Ie-OfRQaVs06B5CcUwJW-7" style="edgeStyle=orthogonalEdgeStyle;rounded=0;orthogonalLoop=1;jettySize=auto;html=1;exitX=0;exitY=0.5;exitDx=0;exitDy=0;startArrow=classic;startFill=1;" parent="1" source="5rb6dhZWjBb2u9iBjQLc-4" target="5rb6dhZWjBb2u9iBjQLc-31" edge="1">
          <mxGeometry relative="1" as="geometry" />
        </mxCell>
        <mxCell id="5rb6dhZWjBb2u9iBjQLc-4" value="&lt;font style=&quot;font-size: 14px;&quot;&gt;Application&lt;br&gt;server&lt;/font&gt;" style="rounded=1;whiteSpace=wrap;html=1;absoluteArcSize=1;arcSize=14;strokeWidth=2;" parent="1" vertex="1">
          <mxGeometry x="865" y="260" width="100" height="100" as="geometry" />
        </mxCell>
        <mxCell id="5rb6dhZWjBb2u9iBjQLc-27" style="edgeStyle=orthogonalEdgeStyle;rounded=0;orthogonalLoop=1;jettySize=auto;html=1;exitX=0.5;exitY=1;exitDx=0;exitDy=0;entryX=0.5;entryY=0;entryDx=0;entryDy=0;startArrow=classic;startFill=1;" parent="1" source="5rb6dhZWjBb2u9iBjQLc-6" target="5rb6dhZWjBb2u9iBjQLc-4" edge="1">
          <mxGeometry relative="1" as="geometry" />
        </mxCell>
        <mxCell id="5rb6dhZWjBb2u9iBjQLc-6" value="&lt;font style=&quot;font-size: 14px;&quot;&gt;Web&amp;nbsp;Server&lt;br&gt;(Nginx)&lt;/font&gt;" style="rounded=1;whiteSpace=wrap;html=1;absoluteArcSize=1;arcSize=14;strokeWidth=2;" parent="1" vertex="1">
          <mxGeometry x="865" y="90" width="100" height="100" as="geometry" />
        </mxCell>
        <mxCell id="5rb6dhZWjBb2u9iBjQLc-34" style="edgeStyle=orthogonalEdgeStyle;rounded=0;orthogonalLoop=1;jettySize=auto;html=1;exitX=1;exitY=0.5;exitDx=0;exitDy=0;entryX=0;entryY=0.5;entryDx=0;entryDy=0;startArrow=classic;startFill=1;" parent="1" source="5rb6dhZWjBb2u9iBjQLc-8" target="5rb6dhZWjBb2u9iBjQLc-17" edge="1">
          <mxGeometry relative="1" as="geometry" />
        </mxCell>
        <mxCell id="5rb6dhZWjBb2u9iBjQLc-8" value="&lt;font style=&quot;font-size: 14px;&quot;&gt;Browser&lt;/font&gt;" style="rounded=1;whiteSpace=wrap;html=1;absoluteArcSize=1;arcSize=14;strokeWidth=2;" parent="1" vertex="1">
          <mxGeometry x="-220" y="340" width="80" height="80" as="geometry" />
        </mxCell>
        <mxCell id="5rb6dhZWjBb2u9iBjQLc-43" style="edgeStyle=orthogonalEdgeStyle;rounded=0;orthogonalLoop=1;jettySize=auto;html=1;exitX=0.75;exitY=0;exitDx=0;exitDy=0;entryX=0.75;entryY=1;entryDx=0;entryDy=0;" parent="1" source="5rb6dhZWjBb2u9iBjQLc-13" target="5rb6dhZWjBb2u9iBjQLc-17" edge="1">
          <mxGeometry relative="1" as="geometry">
            <Array as="points">
              <mxPoint x="43" y="620" />
            </Array>
          </mxGeometry>
        </mxCell>
        <mxCell id="5rb6dhZWjBb2u9iBjQLc-44" value="Returns IP:&lt;br style=&quot;border-color: var(--border-color); font-size: 12px;&quot;&gt;&lt;span style=&quot;font-size: 12px;&quot;&gt;8.8.8.8&lt;/span&gt;" style="edgeLabel;html=1;align=center;verticalAlign=middle;resizable=0;points=[];" parent="5rb6dhZWjBb2u9iBjQLc-43" vertex="1" connectable="0">
          <mxGeometry x="-0.0605" y="1" relative="1" as="geometry">
            <mxPoint x="21" y="-14" as="offset" />
          </mxGeometry>
        </mxCell>
        <mxCell id="5rb6dhZWjBb2u9iBjQLc-13" value="&lt;font style=&quot;font-size: 14px;&quot;&gt;DNS&lt;br&gt;server&lt;/font&gt;" style="rounded=1;whiteSpace=wrap;html=1;absoluteArcSize=1;arcSize=14;strokeWidth=2;" parent="1" vertex="1">
          <mxGeometry x="-17" y="640" width="100" height="90" as="geometry" />
        </mxCell>
        <mxCell id="5rb6dhZWjBb2u9iBjQLc-20" style="edgeStyle=orthogonalEdgeStyle;rounded=0;orthogonalLoop=1;jettySize=auto;html=1;exitX=0.25;exitY=1;exitDx=0;exitDy=0;entryX=0.18;entryY=0;entryDx=0;entryDy=0;entryPerimeter=0;" parent="1" source="5rb6dhZWjBb2u9iBjQLc-17" target="5rb6dhZWjBb2u9iBjQLc-13" edge="1">
          <mxGeometry relative="1" as="geometry">
            <mxPoint x="3" y="610" as="targetPoint" />
            <Array as="points">
              <mxPoint x="3" y="525" />
              <mxPoint x="1" y="525" />
            </Array>
          </mxGeometry>
        </mxCell>
        <mxCell id="5rb6dhZWjBb2u9iBjQLc-23" value="&lt;font style=&quot;font-size: 12px;&quot;&gt;Requests&lt;br&gt;the IP for&lt;br&gt;www.foobar.com&lt;/font&gt;" style="edgeLabel;html=1;align=center;verticalAlign=middle;resizable=0;points=[];" parent="5rb6dhZWjBb2u9iBjQLc-20" vertex="1" connectable="0">
          <mxGeometry x="0.0222" y="-2" relative="1" as="geometry">
            <mxPoint x="-18" y="-6" as="offset" />
          </mxGeometry>
        </mxCell>
        <mxCell id="WCC0QbR53YFn9wZXsvke-2" style="edgeStyle=orthogonalEdgeStyle;rounded=0;orthogonalLoop=1;jettySize=auto;html=1;exitX=1;exitY=0.5;exitDx=0;exitDy=0;entryX=0.07;entryY=0.4;entryDx=0;entryDy=0;entryPerimeter=0;startArrow=classic;startFill=1;" edge="1" parent="1" source="5rb6dhZWjBb2u9iBjQLc-17" target="5rb6dhZWjBb2u9iBjQLc-2">
          <mxGeometry relative="1" as="geometry">
            <Array as="points">
              <mxPoint x="100" y="371" />
            </Array>
          </mxGeometry>
        </mxCell>
        <mxCell id="WCC0QbR53YFn9wZXsvke-3" value="&lt;div&gt;&lt;font style=&quot;font-size: 14px;&quot;&gt;&lt;b&gt;SSL&lt;/b&gt;&lt;/font&gt;&lt;/div&gt;&lt;div&gt;&lt;font style=&quot;font-size: 14px;&quot;&gt;&lt;b&gt;certificate&lt;/b&gt;&lt;/font&gt;&lt;/div&gt;" style="edgeLabel;html=1;align=center;verticalAlign=middle;resizable=0;points=[];" vertex="1" connectable="0" parent="WCC0QbR53YFn9wZXsvke-2">
          <mxGeometry x="-0.0235" y="3" relative="1" as="geometry">
            <mxPoint as="offset" />
          </mxGeometry>
        </mxCell>
        <mxCell id="5rb6dhZWjBb2u9iBjQLc-17" value="&lt;font style=&quot;font-size: 14px;&quot;&gt;User router&lt;/font&gt;" style="whiteSpace=wrap;html=1;aspect=fixed;" parent="1" vertex="1">
          <mxGeometry x="-17" y="330" width="80" height="80" as="geometry" />
        </mxCell>
        <mxCell id="5rb6dhZWjBb2u9iBjQLc-33" style="edgeStyle=orthogonalEdgeStyle;rounded=0;orthogonalLoop=1;jettySize=auto;html=1;exitX=0.5;exitY=1;exitDx=0;exitDy=0;exitPerimeter=0;entryX=0.5;entryY=0;entryDx=0;entryDy=0;entryPerimeter=0;startArrow=classic;startFill=1;" parent="1" source="5rb6dhZWjBb2u9iBjQLc-31" target="5rb6dhZWjBb2u9iBjQLc-1" edge="1">
          <mxGeometry relative="1" as="geometry" />
        </mxCell>
        <mxCell id="5rb6dhZWjBb2u9iBjQLc-31" value="&lt;font style=&quot;font-size: 14px;&quot;&gt;Code base&lt;/font&gt;" style="shape=note;whiteSpace=wrap;html=1;backgroundOutline=1;darkOpacity=0.05;" parent="1" vertex="1">
          <mxGeometry x="668" y="200" width="80" height="100" as="geometry" />
        </mxCell>
        <mxCell id="Ie-OfRQaVs06B5CcUwJW-16" style="edgeStyle=orthogonalEdgeStyle;rounded=0;orthogonalLoop=1;jettySize=auto;html=1;exitX=1;exitY=0.5;exitDx=0;exitDy=0;startArrow=classic;startFill=1;" parent="1" source="5rb6dhZWjBb2u9iBjQLc-35" target="5rb6dhZWjBb2u9iBjQLc-6" edge="1">
          <mxGeometry relative="1" as="geometry" />
        </mxCell>
        <mxCell id="5rb6dhZWjBb2u9iBjQLc-35" value="&lt;font style=&quot;font-size: 14px;&quot;&gt;Server 1&lt;/font&gt;" style="rounded=1;whiteSpace=wrap;html=1;absoluteArcSize=1;arcSize=14;strokeWidth=2;" parent="1" vertex="1">
          <mxGeometry x="598" y="50" width="100" height="100" as="geometry" />
        </mxCell>
        <mxCell id="5rb6dhZWjBb2u9iBjQLc-41" style="edgeStyle=orthogonalEdgeStyle;rounded=0;orthogonalLoop=1;jettySize=auto;html=1;exitX=0.5;exitY=0;exitDx=0;exitDy=0;exitPerimeter=0;entryX=0.5;entryY=1;entryDx=0;entryDy=0;startArrow=classic;startFill=1;" parent="1" source="5rb6dhZWjBb2u9iBjQLc-40" target="5rb6dhZWjBb2u9iBjQLc-8" edge="1">
          <mxGeometry relative="1" as="geometry" />
        </mxCell>
        <mxCell id="5rb6dhZWjBb2u9iBjQLc-42" value="&lt;font style=&quot;font-size: 12px;&quot;&gt;Tries to access website&lt;/font&gt;" style="edgeLabel;html=1;align=center;verticalAlign=middle;resizable=0;points=[];" parent="5rb6dhZWjBb2u9iBjQLc-41" vertex="1" connectable="0">
          <mxGeometry x="0.0714" y="-2" relative="1" as="geometry">
            <mxPoint as="offset" />
          </mxGeometry>
        </mxCell>
        <mxCell id="5rb6dhZWjBb2u9iBjQLc-40" value="&lt;font style=&quot;font-size: 14px;&quot;&gt;User&lt;/font&gt;" style="strokeWidth=2;html=1;shape=mxgraph.flowchart.start_1;whiteSpace=wrap;" parent="1" vertex="1">
          <mxGeometry x="-230" y="600" width="100" height="70" as="geometry" />
        </mxCell>
        <mxCell id="5rb6dhZWjBb2u9iBjQLc-47" value="&lt;h1 style=&quot;font-size: 19px;&quot;&gt;&lt;span style=&quot;&quot;&gt;&lt;span style=&quot;&quot;&gt;&lt;span style=&quot;&quot;&gt;&amp;nbsp;&amp;nbsp;&amp;nbsp;&amp;nbsp;&lt;/span&gt;&lt;/span&gt;&lt;/span&gt;2. Secured and monitored web infrastructure&lt;br&gt;    &lt;/h1&gt;&lt;div style=&quot;&quot;&gt;&lt;span style=&quot;font-size: 15px;&quot;&gt;&amp;nbsp;- Better redundancies but still weak at the database level&lt;br&gt;&lt;/span&gt;&lt;/div&gt;&lt;div style=&quot;&quot;&gt;&lt;span style=&quot;font-size: 15px;&quot;&gt;&amp;nbsp;- Firewalls filtering traffic&lt;/span&gt;&lt;/div&gt;&lt;div style=&quot;&quot;&gt;&lt;span style=&quot;font-size: 15px;&quot;&gt;&amp;nbsp;- HTTPS prevents reading intercepted data but not between the load balancer and the &lt;br&gt;&lt;/span&gt;&lt;/div&gt;&lt;div style=&quot;&quot;&gt;&lt;span style=&quot;font-size: 15px;&quot;&gt;&amp;nbsp;&amp;nbsp; other servers.&lt;br&gt;&lt;/span&gt;&lt;/div&gt;&lt;div style=&quot;&quot;&gt;&lt;span style=&quot;font-size: 15px;&quot;&gt;&amp;nbsp;- Server monitoring via data collection (sent to client like Sumologic)&lt;br&gt;&lt;/span&gt;&lt;/div&gt;&lt;div style=&quot;&quot;&gt;&lt;span style=&quot;font-size: 15px;&quot;&gt;&amp;nbsp;- The load balancer is still a SPOF&lt;/span&gt;&lt;/div&gt;&lt;div style=&quot;&quot;&gt;&lt;span style=&quot;font-size: 15px;&quot;&gt;&amp;nbsp;- Servers having identical components and roles might cause issues in efficency, scaling and maintenance &amp;nbsp;&amp;nbsp; &lt;br&gt;&lt;/span&gt;&lt;/div&gt;&lt;div style=&quot;&quot;&gt;&lt;span style=&quot;font-size: 15px;&quot;&gt;&amp;nbsp;&amp;nbsp; (ex: no dedicated servers for databases)&lt;br&gt;&lt;/span&gt;&lt;/div&gt;&lt;div style=&quot;&quot;&gt;&lt;span style=&quot;font-size: 15px;&quot;&gt;&lt;br&gt;&lt;/span&gt;&lt;/div&gt;" style="text;html=1;align=left;verticalAlign=middle;resizable=0;points=[];autosize=1;labelBackgroundColor=default;labelBorderColor=default;strokeWidth=1;rounded=0;spacing=2;" parent="1" vertex="1">
          <mxGeometry x="-280" y="745" width="730" height="220" as="geometry" />
        </mxCell>
        <mxCell id="5rb6dhZWjBb2u9iBjQLc-50" value="&lt;h1&gt;&lt;font style=&quot;font-size: 16px;&quot;&gt;&lt;b&gt;REMOTE LINUX SERVER 1&lt;/b&gt;&lt;/font&gt;&lt;/h1&gt;" style="text;html=1;align=center;verticalAlign=middle;resizable=0;points=[];autosize=1;strokeColor=none;fillColor=none;" parent="1" vertex="1">
          <mxGeometry x="769" y="9" width="230" height="70" as="geometry" />
        </mxCell>
        <mxCell id="5rb6dhZWjBb2u9iBjQLc-52" value="&lt;h1&gt;&lt;font style=&quot;font-size: 16px;&quot;&gt;&lt;b&gt;USER MACHINE&lt;/b&gt;&lt;/font&gt;&lt;/h1&gt;" style="text;html=1;align=center;verticalAlign=middle;resizable=0;points=[];autosize=1;strokeColor=none;fillColor=none;" parent="1" vertex="1">
          <mxGeometry x="-230" y="269" width="150" height="70" as="geometry" />
        </mxCell>
        <mxCell id="WCC0QbR53YFn9wZXsvke-9" style="edgeStyle=orthogonalEdgeStyle;rounded=0;orthogonalLoop=1;jettySize=auto;html=1;exitX=1;exitY=0.75;exitDx=0;exitDy=0;entryX=0.5;entryY=0;entryDx=0;entryDy=0;startArrow=classic;startFill=1;" edge="1" parent="1" source="5rb6dhZWjBb2u9iBjQLc-60" target="WCC0QbR53YFn9wZXsvke-8">
          <mxGeometry relative="1" as="geometry" />
        </mxCell>
        <mxCell id="WCC0QbR53YFn9wZXsvke-10" style="edgeStyle=orthogonalEdgeStyle;rounded=0;orthogonalLoop=1;jettySize=auto;html=1;exitX=1;exitY=0.25;exitDx=0;exitDy=0;entryX=0.5;entryY=0;entryDx=0;entryDy=0;startArrow=classic;startFill=1;" edge="1" parent="1" source="5rb6dhZWjBb2u9iBjQLc-60" target="WCC0QbR53YFn9wZXsvke-7">
          <mxGeometry relative="1" as="geometry" />
        </mxCell>
        <mxCell id="5rb6dhZWjBb2u9iBjQLc-60" value="&lt;div style=&quot;font-size: 14px;&quot;&gt;&lt;font style=&quot;font-size: 14px;&quot;&gt;8.8.8.8&lt;br&gt;&lt;/font&gt;&lt;/div&gt;&lt;div style=&quot;font-size: 14px;&quot;&gt;&lt;font style=&quot;font-size: 14px;&quot;&gt;Load balancer&lt;/font&gt;&lt;/div&gt;&lt;font style=&quot;font-size: 14px;&quot;&gt;(HAproxy)&lt;/font&gt;" style="shape=process;whiteSpace=wrap;html=1;backgroundOutline=1;" parent="1" vertex="1">
          <mxGeometry x="380" y="329.5" width="110" height="99.5" as="geometry" />
        </mxCell>
        <mxCell id="Ie-OfRQaVs06B5CcUwJW-6" style="edgeStyle=orthogonalEdgeStyle;rounded=0;orthogonalLoop=1;jettySize=auto;html=1;exitX=0.5;exitY=1;exitDx=0;exitDy=0;" parent="1" source="5rb6dhZWjBb2u9iBjQLc-49" target="5rb6dhZWjBb2u9iBjQLc-49" edge="1">
          <mxGeometry relative="1" as="geometry" />
        </mxCell>
        <mxCell id="Ie-OfRQaVs06B5CcUwJW-17" value="" style="rounded=0;whiteSpace=wrap;html=1;fillColor=none;" parent="1" vertex="1">
          <mxGeometry x="598" y="480" width="410" height="450" as="geometry" />
        </mxCell>
        <mxCell id="Ie-OfRQaVs06B5CcUwJW-18" value="&lt;font style=&quot;font-size: 14px;&quot;&gt;Database&lt;br&gt;(MySQL)&lt;/font&gt;" style="strokeWidth=2;html=1;shape=mxgraph.flowchart.database;whiteSpace=wrap;" parent="1" vertex="1">
          <mxGeometry x="668" y="800" width="80" height="110" as="geometry" />
        </mxCell>
        <mxCell id="Ie-OfRQaVs06B5CcUwJW-19" style="edgeStyle=orthogonalEdgeStyle;rounded=0;orthogonalLoop=1;jettySize=auto;html=1;exitX=0;exitY=0.5;exitDx=0;exitDy=0;startArrow=classic;startFill=1;" parent="1" source="Ie-OfRQaVs06B5CcUwJW-20" target="Ie-OfRQaVs06B5CcUwJW-24" edge="1">
          <mxGeometry relative="1" as="geometry" />
        </mxCell>
        <mxCell id="Ie-OfRQaVs06B5CcUwJW-20" value="&lt;font style=&quot;font-size: 14px;&quot;&gt;Application&lt;br&gt;server&lt;/font&gt;" style="rounded=1;whiteSpace=wrap;html=1;absoluteArcSize=1;arcSize=14;strokeWidth=2;" parent="1" vertex="1">
          <mxGeometry x="865" y="720" width="100" height="100" as="geometry" />
        </mxCell>
        <mxCell id="Ie-OfRQaVs06B5CcUwJW-21" style="edgeStyle=orthogonalEdgeStyle;rounded=0;orthogonalLoop=1;jettySize=auto;html=1;exitX=0.5;exitY=1;exitDx=0;exitDy=0;entryX=0.5;entryY=0;entryDx=0;entryDy=0;startArrow=classic;startFill=1;" parent="1" source="Ie-OfRQaVs06B5CcUwJW-22" target="Ie-OfRQaVs06B5CcUwJW-20" edge="1">
          <mxGeometry relative="1" as="geometry" />
        </mxCell>
        <mxCell id="Ie-OfRQaVs06B5CcUwJW-22" value="&lt;font style=&quot;font-size: 14px;&quot;&gt;Web&amp;nbsp;Server&lt;br&gt;(Nginx)&lt;/font&gt;" style="rounded=1;whiteSpace=wrap;html=1;absoluteArcSize=1;arcSize=14;strokeWidth=2;" parent="1" vertex="1">
          <mxGeometry x="865" y="550" width="100" height="100" as="geometry" />
        </mxCell>
        <mxCell id="Ie-OfRQaVs06B5CcUwJW-23" style="edgeStyle=orthogonalEdgeStyle;rounded=0;orthogonalLoop=1;jettySize=auto;html=1;exitX=0.5;exitY=1;exitDx=0;exitDy=0;exitPerimeter=0;entryX=0.5;entryY=0;entryDx=0;entryDy=0;entryPerimeter=0;startArrow=classic;startFill=1;" parent="1" source="Ie-OfRQaVs06B5CcUwJW-24" target="Ie-OfRQaVs06B5CcUwJW-18" edge="1">
          <mxGeometry relative="1" as="geometry" />
        </mxCell>
        <mxCell id="Ie-OfRQaVs06B5CcUwJW-24" value="&lt;font style=&quot;font-size: 14px;&quot;&gt;Code base&lt;/font&gt;" style="shape=note;whiteSpace=wrap;html=1;backgroundOutline=1;darkOpacity=0.05;" parent="1" vertex="1">
          <mxGeometry x="668" y="660" width="80" height="100" as="geometry" />
        </mxCell>
        <mxCell id="Ie-OfRQaVs06B5CcUwJW-25" style="edgeStyle=orthogonalEdgeStyle;rounded=0;orthogonalLoop=1;jettySize=auto;html=1;exitX=1;exitY=0.5;exitDx=0;exitDy=0;startArrow=classic;startFill=1;" parent="1" source="Ie-OfRQaVs06B5CcUwJW-26" target="Ie-OfRQaVs06B5CcUwJW-22" edge="1">
          <mxGeometry relative="1" as="geometry" />
        </mxCell>
        <mxCell id="Ie-OfRQaVs06B5CcUwJW-26" value="&lt;font style=&quot;font-size: 14px;&quot;&gt;Server 2&lt;/font&gt;" style="rounded=1;whiteSpace=wrap;html=1;absoluteArcSize=1;arcSize=14;strokeWidth=2;" parent="1" vertex="1">
          <mxGeometry x="598" y="510" width="100" height="100" as="geometry" />
        </mxCell>
        <mxCell id="Ie-OfRQaVs06B5CcUwJW-27" value="&lt;h1&gt;&lt;font style=&quot;font-size: 16px;&quot;&gt;&lt;b&gt;REMOTE LINUX SERVER 2&lt;/b&gt;&lt;/font&gt;&lt;/h1&gt;" style="text;html=1;align=center;verticalAlign=middle;resizable=0;points=[];autosize=1;strokeColor=none;fillColor=none;" parent="1" vertex="1">
          <mxGeometry x="769" y="469" width="230" height="70" as="geometry" />
        </mxCell>
        <mxCell id="Ie-OfRQaVs06B5CcUwJW-28" style="edgeStyle=orthogonalEdgeStyle;rounded=0;orthogonalLoop=1;jettySize=auto;html=1;exitX=0.5;exitY=1;exitDx=0;exitDy=0;" parent="1" source="Ie-OfRQaVs06B5CcUwJW-17" target="Ie-OfRQaVs06B5CcUwJW-17" edge="1">
          <mxGeometry relative="1" as="geometry" />
        </mxCell>
        <mxCell id="WCC0QbR53YFn9wZXsvke-7" value="&lt;font style=&quot;font-size: 14px;&quot;&gt;Firewall&lt;/font&gt;" style="rounded=0;whiteSpace=wrap;html=1;direction=north;" vertex="1" parent="1">
          <mxGeometry x="538" y="20" width="60" height="161" as="geometry" />
        </mxCell>
        <mxCell id="WCC0QbR53YFn9wZXsvke-8" value="&lt;font style=&quot;font-size: 14px;&quot;&gt;Firewall&lt;/font&gt;" style="rounded=0;whiteSpace=wrap;html=1;direction=north;" vertex="1" parent="1">
          <mxGeometry x="538" y="479.5" width="60" height="161" as="geometry" />
        </mxCell>
        <mxCell id="WCC0QbR53YFn9wZXsvke-14" value="" style="shape=mxgraph.signs.healthcare.eye;html=1;pointerEvents=1;fillColor=#000000;strokeColor=none;verticalLabelPosition=bottom;verticalAlign=top;align=center;gradientColor=none;container=0;" vertex="1" parent="1">
          <mxGeometry x="598" y="449" width="40" height="20" as="geometry" />
        </mxCell>
        <mxCell id="WCC0QbR53YFn9wZXsvke-20" value="" style="shape=mxgraph.signs.healthcare.eye;html=1;pointerEvents=1;fillColor=#000000;strokeColor=none;verticalLabelPosition=bottom;verticalAlign=top;align=center;gradientColor=none;container=0;" vertex="1" parent="1">
          <mxGeometry x="415" y="310.5" width="40" height="19" as="geometry" />
        </mxCell>
        <mxCell id="WCC0QbR53YFn9wZXsvke-22" value="" style="shape=mxgraph.signs.healthcare.eye;html=1;pointerEvents=1;fillColor=#000000;strokeColor=none;verticalLabelPosition=bottom;verticalAlign=top;align=center;gradientColor=none;container=0;" vertex="1" parent="1">
          <mxGeometry x="597" y="909" width="40" height="20" as="geometry" />
        </mxCell>
        <mxCell id="WCC0QbR53YFn9wZXsvke-24" value="&lt;font style=&quot;font-size: 14px;&quot;&gt;Firewall&lt;/font&gt;" style="rounded=0;whiteSpace=wrap;html=1;direction=north;" vertex="1" parent="1">
          <mxGeometry x="330" y="325" width="50" height="109" as="geometry" />
        </mxCell>
      </root>
    </mxGraphModel>
  </diagram>
</mxfile>
